# xmcd CD database file generated by Grip 2.91
# 
# Track frame offsets:
#       150
#       14870
#       35658
#       51111
#       72890
#       87585
#       114174
#       129154
#       148145
#       177885
#       201779
# 
# Disc length: 2876 seconds
# 
# Revision: 3
# Processed by: cddbd v1.4b41PL2 Copyright (c) Steve Scherf et al.
# Submitted via: Grip 2.91
# 
DISCID=9d0b3a0b
DTITLE=Tim Easton - The truth about us
DYEAR=1900
DGENRE=
TTITLE0=Half a Day
TTITLE1=Carry Me
TTITLE2=Downtown Lights
TTITLE3=Get Some Lonesome
TTITLE4=Happy Now
TTITLE5=Bad Florida
TTITLE6=Soup Can Telephone Game Conversation
TTITLE7=Out of Your Life
TTITLE8=I Would Have Married You
TTITLE9=When the Lights Went Out
TTITLE10=Don't Walk Alone
EXTD=
EXTT0=
EXTT1=
EXTT2=
EXTT3=
EXTT4=
EXTT5=
EXTT6=
EXTT7=
EXTT8=
EXTT9=
EXTT10=
PLAYORDER=
